<svg xmlns="http://www.w3.org/2000/svg" version="1.1" xmlns:xlink="http://www.w3.org/1999/xlink" xmlns:svgjs="http://svgjs.dev/svgjs" width="1500" height="935" viewBox="0 0 1500 935"><g transform="matrix(1,0,0,1,-0.9090909090909918,0.3785425101214628)"><svg viewBox="0 0 396 247" data-background-color="#000000" preserveAspectRatio="xMidYMid meet" height="935" width="1500" xmlns="http://www.w3.org/2000/svg" xmlns:xlink="http://www.w3.org/1999/xlink"><g id="tight-bounds" transform="matrix(1,0,0,1,0.2400000000000091,-0.09999999999999432)"><svg viewBox="0 0 395.52 247.2" height="247.2" width="395.52"><rect width="395.52" height="247.2" fill="url(#4fd9cee9-efad-4610-abec-8c7ad9f8fbbc)" mask="url(#689c5d26-5b3d-44c2-91fd-010768d10203)" data-fill-palette-color="tertiary"></rect><g><svg></svg></g><g><svg viewBox="0 0 395.52 247.2" height="247.2" width="395.52"><g transform="matrix(1,0,0,1,139.85898542274052,47.215199999999996)"><svg viewBox="0 0 115.80202915451895 152.7696" height="152.7696" width="115.80202915451895"><g><svg viewBox="0 0 115.80202915451895 152.7696" height="152.7696" width="115.80202915451895"><g><svg viewBox="0 0 115.80202915451895 152.7696" height="152.7696" width="115.80202915451895"><g><svg viewBox="0 0 115.80202915451895 152.7696" height="152.7696" width="115.80202915451895"><g id="textblocktransform"><svg viewBox="0 0 115.80202915451895 152.7696" height="152.7696" width="115.80202915451895" id="textblock"><g><svg viewBox="0 0 115.80202915451895 152.7696" height="152.7696" width="115.80202915451895"><g transform="matrix(1,0,0,1,0,0)"><svg width="115.80202915451895" viewBox="1.7 -34.3 26 34.3" height="152.7696" data-palette-color="url(#2c1b1198-b4c6-4dee-8cc1-2e8a048d9fa3)"></svg></g></svg></g></svg></g></svg></g></svg></g></svg></g></svg></g><path d="M73.36 41.215L73.36 0 320.56 0 320.56 247.2 73.36 247.2 73.36 205.985 87.137 205.985 87.137 233.423 306.783 233.423 306.783 13.777 87.137 13.777 87.137 41.215Z" fill="url(#4fd9cee9-efad-4610-abec-8c7ad9f8fbbc)" stroke="transparent" data-fill-palette-color="tertiary"></path></svg></g><defs></defs><mask id="1a97df24-2015-409d-8cd1-9834297a29c5"><g id="SvgjsG1036"><svg viewBox="0 0 395.52 247.2" height="247.2" width="395.52"><g><svg></svg></g><g><svg viewBox="0 0 395.52 247.2" height="247.2" width="395.52"><g transform="matrix(1,0,0,1,139.85898542274052,47.215199999999996)"><svg viewBox="0 0 115.80202915451895 152.7696" height="152.7696" width="115.80202915451895"><g><svg viewBox="0 0 115.80202915451895 152.7696" height="152.7696" width="115.80202915451895"><g><svg viewBox="0 0 115.80202915451895 152.7696" height="152.7696" width="115.80202915451895"><g><svg viewBox="0 0 115.80202915451895 152.7696" height="152.7696" width="115.80202915451895"><g id="SvgjsG1035"><svg viewBox="0 0 115.80202915451895 152.7696" height="152.7696" width="115.80202915451895" id="SvgjsSvg1034"><g><svg viewBox="0 0 115.80202915451895 152.7696" height="152.7696" width="115.80202915451895"><g transform="matrix(1,0,0,1,0,0)"><svg width="115.80202915451895" viewBox="1.7 -34.3 26 34.3" height="152.7696" data-palette-color="url(#2c1b1198-b4c6-4dee-8cc1-2e8a048d9fa3)"><path d="M1.7 0L6.55-34.3 27.7-34.3 27.1-30.3 10.35-30.3 8.85-19.55 23.4-19.55 22.85-15.55 8.3-15.55 6.7-4 23.75-4 23.15 0 1.7 0Z" opacity="1" transform="matrix(1,0,0,1,0,0)" fill="white" class="wordmark-text-0" id="SvgjsPath1033"></path></svg></g></svg></g></svg></g></svg></g></svg></g></svg></g></svg></g><path d="M73.36 41.215L73.36 0 320.56 0 320.56 247.2 73.36 247.2 73.36 205.985 87.137 205.985 87.137 233.423 306.783 233.423 306.783 13.777 87.137 13.777 87.137 41.215Z" fill="black" stroke="transparent"></path></svg></g><defs><mask></mask></defs></svg><rect width="395.52" height="247.2" fill="black" stroke="none" visibility="hidden"></rect></g></mask><linearGradient x1="0" x2="1" y1="0.578" y2="0.595" id="2c1b1198-b4c6-4dee-8cc1-2e8a048d9fa3"><stop stop-color="#6ee2f5" offset="0"></stop><stop stop-color="#6454f0" offset="1"></stop></linearGradient><rect width="395.52" height="247.2" fill="url(#2c1b1198-b4c6-4dee-8cc1-2e8a048d9fa3)" mask="url(#1a97df24-2015-409d-8cd1-9834297a29c5)" data-fill-palette-color="primary"></rect><mask id="689c5d26-5b3d-44c2-91fd-010768d10203"><g id="SvgjsG1059"><svg viewBox="0 0 395.52 247.2" height="247.2" width="395.52"><g><svg></svg></g><g><svg viewBox="0 0 395.52 247.2" height="247.2" width="395.52"><g transform="matrix(1,0,0,1,139.85898542274052,47.215199999999996)"><svg viewBox="0 0 115.80202915451895 152.7696" height="152.7696" width="115.80202915451895"><g><svg viewBox="0 0 115.80202915451895 152.7696" height="152.7696" width="115.80202915451895"><g><svg viewBox="0 0 115.80202915451895 152.7696" height="152.7696" width="115.80202915451895"><g><svg viewBox="0 0 115.80202915451895 152.7696" height="152.7696" width="115.80202915451895"><g id="SvgjsG1058"><svg viewBox="0 0 115.80202915451895 152.7696" height="152.7696" width="115.80202915451895" id="SvgjsSvg1057"><g><svg viewBox="0 0 115.80202915451895 152.7696" height="152.7696" width="115.80202915451895"><g transform="matrix(1,0,0,1,0,0)"><svg width="115.80202915451895" viewBox="1.7 -34.3 26 34.3" height="152.7696" data-palette-color="url(#2c1b1198-b4c6-4dee-8cc1-2e8a048d9fa3)"></svg></g></svg></g></svg></g></svg></g></svg></g></svg></g></svg></g><path d="M73.36 41.215L73.36 0 320.56 0 320.56 247.2 73.36 247.2 73.36 205.985 87.137 205.985 87.137 233.423 306.783 233.423 306.783 13.777 87.137 13.777 87.137 41.215Z" fill="white" stroke="transparent"></path></svg></g><defs><mask></mask></defs><mask><g id="SvgjsG1056"><svg viewBox="0 0 395.52 247.2" height="247.2" width="395.52"><g><svg></svg></g><g><svg viewBox="0 0 395.52 247.2" height="247.2" width="395.52"><g transform="matrix(1,0,0,1,139.85898542274052,47.215199999999996)"><svg viewBox="0 0 115.80202915451895 152.7696" height="152.7696" width="115.80202915451895"><g><svg viewBox="0 0 115.80202915451895 152.7696" height="152.7696" width="115.80202915451895"><g><svg viewBox="0 0 115.80202915451895 152.7696" height="152.7696" width="115.80202915451895"><g><svg viewBox="0 0 115.80202915451895 152.7696" height="152.7696" width="115.80202915451895"><g id="SvgjsG1055"><svg viewBox="0 0 115.80202915451895 152.7696" height="152.7696" width="115.80202915451895" id="SvgjsSvg1054"><g><svg viewBox="0 0 115.80202915451895 152.7696" height="152.7696" width="115.80202915451895"><g transform="matrix(1,0,0,1,0,0)"><svg width="115.80202915451895" viewBox="1.7 -34.3 26 34.3" height="152.7696" data-palette-color="url(#2c1b1198-b4c6-4dee-8cc1-2e8a048d9fa3)"><path d="M1.7 0L6.55-34.3 27.7-34.3 27.1-30.3 10.35-30.3 8.85-19.55 23.4-19.55 22.85-15.55 8.3-15.55 6.7-4 23.75-4 23.15 0 1.7 0Z" opacity="1" transform="matrix(1,0,0,1,0,0)" fill="black" class="wordmark-text-0" id="SvgjsPath1053"></path></svg></g></svg></g></svg></g></svg></g></svg></g></svg></g></svg></g><path d="M73.36 41.215L73.36 0 320.56 0 320.56 247.2 73.36 247.2 73.36 205.985 87.137 205.985 87.137 233.423 306.783 233.423 306.783 13.777 87.137 13.777 87.137 41.215Z" fill="black" stroke="transparent"></path></svg></g><defs><mask></mask></defs></svg><rect width="395.52" height="247.2" fill="black" stroke="none" visibility="hidden"></rect></g></mask></svg><rect width="395.52" height="247.2" fill="black" stroke="none" visibility="hidden"></rect></g></mask><linearGradient x1="0" x2="1" y1="0.578" y2="0.595" id="4fd9cee9-efad-4610-abec-8c7ad9f8fbbc"><stop stop-color="#6ee2f5" offset="0"></stop><stop stop-color="#6454f0" offset="1"></stop></linearGradient></svg><rect width="395.52" height="247.2" fill="none" stroke="none" visibility="hidden"></rect></g></svg></g></svg>